<!DOCTYPE svg PUBLIC "-//W3C//DTD SVG 1.1//EN" "http://www.w3.org/Graphics/SVG/1.1/DTD/svg11.dtd">
<!-- Uploaded to: SVG Repo, www.svgrepo.com, Transformed by: SVG Repo Mixer Tools -->
<svg fill="#525252" height="800px" width="800px" version="1.1" id="Capa_1" xmlns="http://www.w3.org/2000/svg" xmlns:xlink="http://www.w3.org/1999/xlink" viewBox="0 0 460 460" xml:space="preserve" stroke="#525252">
<g id="SVGRepo_bgCarrier" stroke-width="0"/>
<g id="SVGRepo_tracerCarrier" stroke-linecap="round" stroke-linejoin="round"/>
<g id="SVGRepo_iconCarrier"> <g> <path d="M433.702,192.486c-4.695-6.208-10.925-10.863-18.006-13.549c-5.232-50.528-26.754-95.944-61.04-128.505 C320.412,17.91,276.142,0,230,0s-90.412,17.91-124.656,50.432C89.71,65.279,76.74,82.806,66.748,102.265 c-0.298,0.438-0.574,0.896-0.806,1.392c-0.15,0.32-0.28,0.645-0.393,0.971c-11.239,22.609-18.495,47.751-21.245,74.309 c-7.08,2.686-13.311,7.341-18.006,13.549c-6.516,8.615-9.164,19.038-7.458,29.349l11.367,68.688 c2.984,18.035,17.825,31.354,35.8,32.55c5.56,19.015,20.027,68.214,25.54,84.189c7.518,21.784,25.911,36.842,54.669,44.755 C171.782,459.051,202.916,460,230,460s58.218-0.949,83.784-7.983c28.758-7.913,47.151-22.971,54.669-44.755 c5.513-15.976,19.98-65.175,25.539-84.189c17.974-1.195,32.816-14.514,35.801-32.549l11.366-68.688 C442.866,211.524,440.218,201.101,433.702,192.486z M230,20c73.03,0,154.626,56.034,165.707,160.076l-9.531,3.632 c-4.194-7.396-10.444-13.466-18.641-17.995c-12.523-6.921-29.19-10.285-50.952-10.285s-38.429,3.364-50.952,10.285 c-6.315,3.49-11.462,7.902-15.417,13.121L88.91,103.362C120.942,48.773,177.67,20,230,20z M372.461,209.365 c0,29.864-26.634,57.063-55.878,57.063s-55.878-27.198-55.878-57.063c0-2.948,0.003-7.447,1.793-12.214 c0.249-0.384,0.479-0.785,0.678-1.211c0.24-0.512,0.421-1.036,0.568-1.563c4.98-9.434,18.126-18.949,52.839-18.949 c38.745,0,50.622,11.854,54.264,22.218c0.095,0.799,0.277,1.599,0.576,2.385c0.09,0.237,0.19,0.467,0.296,0.693 C372.46,204.111,372.461,207.168,372.461,209.365z M421.428,218.569l-11.367,68.689c-1.228,7.424-6.576,13.201-13.479,15.168 v-8.465c0-5.523-4.478-10-10-10s-10,4.477-10,10v17.379c-2.911,9.988-20.96,71.795-27.035,89.398 C337.639,435.244,285.053,440,230,440s-107.639-4.756-119.547-39.263c-6.075-17.603-24.125-79.41-27.035-89.398V293.96 c0-5.523-4.478-10-10-10s-10,4.477-10,10v8.465c-6.903-1.968-12.25-7.745-13.479-15.168l-11.367-68.688 c-0.802-4.844,0.504-9.823,3.678-14.019c3.188-4.215,7.939-7.117,13.045-7.961c6.035-1.003,8.9-6.276,8.533-10.728 c-0.012-0.142-0.026-0.283-0.044-0.423c1.957-23.905,7.6-45.353,15.996-64.266l162.207,75.894 c-0.835,3.874-1.282,7.97-1.282,12.299c0,41.052,35.457,77.063,75.878,77.063s75.878-36.011,75.878-77.063 c0-2.233-0.127-4.401-0.35-6.515l14.958-5.699c4.185,1.239,7.993,3.843,10.682,7.4C420.924,208.746,422.23,213.725,421.428,218.569 z"/> <path d="M230,383.773c-5.522,0-10,4.477-10,10v12.059c0,5.523,4.478,10,10,10s10-4.477,10-10v-12.059 C240,388.25,235.523,383.773,230,383.773z"/> <path d="M266,353.773h-72c-5.522,0-10,4.477-10,10s4.478,10,10,10h72c5.522,0,10-4.477,10-10S271.523,353.773,266,353.773z"/> <path d="M206.678,218.265c0-5.523-4.478-10-10-10h-64c-5.522,0-10,4.477-10,10c0,23.159,18.841,42,42,42 S206.678,241.423,206.678,218.265z M164.678,240.265c-8.532,0-15.945-4.882-19.593-12h39.186 C180.623,235.382,173.21,240.265,164.678,240.265z"/> </g> </g>
</svg>