<!DOCTYPE svg PUBLIC "-//W3C//DTD SVG 1.1//EN" "http://www.w3.org/Graphics/SVG/1.1/DTD/svg11.dtd">
<!-- Uploaded to: SVG Repo, www.svgrepo.com, Transformed by: SVG Repo Mixer Tools -->
<svg fill="#525252" height="800px" width="800px" version="1.1" id="Capa_1" xmlns="http://www.w3.org/2000/svg" xmlns:xlink="http://www.w3.org/1999/xlink" viewBox="0 0 460 460" xml:space="preserve" stroke="#525252">
<g id="SVGRepo_bgCarrier" stroke-width="0"/>
<g id="SVGRepo_tracerCarrier" stroke-linecap="round" stroke-linejoin="round"/>
<g id="SVGRepo_iconCarrier"> <path d="M450,99.522H295.112c-0.201-10.855-9.078-19.628-19.981-19.628h-38.882c-10.903,0-19.78,8.772-19.981,19.628H108.653 c-0.201-10.855-9.078-19.628-19.981-19.628H49.79c-10.903,0-19.78,8.772-19.981,19.628h-9.647c-3.54,0-12.283,1.385-17.006,14.212 C1.121,119.263,0,126.479,0,134.057c0,21.302,7.726,34.534,20.162,34.534h9.628v68.322c0,11.028,8.972,20,20,20h38.882 c10.902,0,19.779-8.771,19.981-19.627h8.959c-3.044,30.555-19.953,57.795-46.538,74.197c-2.257,1.393-3.868,3.625-4.479,6.206 s-0.173,5.299,1.22,7.556l30.919,50.111c1.393,2.257,3.625,3.868,6.206,4.479c0.762,0.181,1.534,0.27,2.305,0.27 c1.84,0,3.66-0.508,5.251-1.489c25.322-15.625,46.496-37.538,61.231-63.37c13.574-23.794,21.423-50.559,22.968-77.96h19.555v58.509 c0,11.028,8.972,20,20,20h38.882c11.028,0,20-8.972,20-20v-58.509h72.435c5.522,0,10-4.478,10-10v-39.255c0-5.522-4.478-10-10-10 h-72.435v-9.44H450c5.522,0,10-4.478,10-10v-49.068C460,104,455.522,99.522,450,99.522z M236.249,168.218v-9.441h38.882l0,9.441 H236.249z M275.131,129.336l0,9.44h-38.882v-9.44H275.131z M216.249,148.591H108.672v-29.068h107.577V148.591z M108.672,168.591 h107.577v9.44H108.672V168.591z M236.249,188.218h38.883v9.44h-38.883V188.218z M275.131,99.895v9.441h-38.882v-9.441H275.131z M22.374,148.591c-1.01-2.151-2.374-7.107-2.374-14.534s1.364-12.383,2.374-14.534h7.416v29.068H22.374z M49.79,236.913V99.895 h38.882v9.625v0.003c0,0,0,0.002,0,0.003l0.001,49.049c0,0.006-0.001,0.011-0.001,0.017s0.001,0.011,0.001,0.017l0,29.399 c0,0-0.001,0.016-0.001,0.024s0.001,0.017,0.001,0.025l0.001,39.193c0,0.013-0.002,0.024-0.002,0.036s0.002,0.023,0.002,0.036v9.591 H49.79z M156.354,305.336c-11.428,20.034-27.221,37.414-46.019,50.736l-20.464-33.167c27.709-20.41,44.993-51.365,47.821-85.619 h38.98C175.155,261.213,168.21,284.555,156.354,305.336z M108.672,217.286v-19.255h107.577v19.255H108.672z M236.249,295.795 v-78.137h38.883v9.603c0,0.009-0.001,0.017-0.001,0.025c0,0,0.001,0.017,0.001,0.025l0.001,68.483H236.249z M357.565,217.286 h-62.435v-19.255h62.435V217.286z M440,148.591H295.131v-29.068H440V148.591z"/> </g>
</svg>